<svg version="1.1" xmlns="http://www.w3.org/2000/svg" xmlns:xlink="http://www.w3.org/1999/xlink" width="900" height="740"><defs></defs><g><g transform="translate(-182,-14) scale(1,1)"><path fill="none" stroke="#000000" d="M 561 256 L 695 256" stroke-miterlimit="10"></path></g><g transform="translate(-182,-14) scale(1,1)"><path fill="none" stroke="#000000" d="M 684.8373251423759 260.209517756016 L 695 256 L 684.8373251423758 251.790482243984" stroke-miterlimit="10"></path></g><g transform="translate(-182,-14) scale(1,1)"><g><path fill="none" stroke="none"></path><text fill="#000000" stroke="none" font-family="Arial" font-size="13px" font-style="normal" font-weight="normal" text-decoration="none" x="597.5" y="247.5">close door</text></g></g><g transform="translate(-182,-14) scale(1,1)"><path fill="#C0C0C0" stroke="none" d="M 329 31 L 949 31 Q 959 31 959 41 L 959 397 Q 959 407 949 407 L 329 407 Q 319 407 319 397 L 319 41 Q 319 31 329 31 Z" opacity="0.2"></path></g><g transform="translate(-182,-14) scale(1,1)"><path fill="#d8fff8" stroke="none" d="M 322 24 L 942 24 Q 952 24 952 34 L 952 390 Q 952 400 942 400 L 322 400 Q 312 400 312 390 L 312 34 Q 312 24 322 24 Z"></path></g><g transform="translate(-182,-14) scale(1,1)"><path fill="none" stroke="#000000" d="M 322 24 L 942 24 Q 952 24 952 34 L 952 390 Q 952 400 942 400 L 322 400 Q 312 400 312 390 L 312 34 Q 312 24 322 24 Z" stroke-miterlimit="10"></path></g><g transform="translate(-182,-14) scale(1,1)"><path fill="none" stroke="#000000" d="M 312 49 L 952 49" stroke-miterlimit="10"></path></g><g transform="translate(-182,-14) scale(1,1)"><g><path fill="none" stroke="none"></path><text fill="#000000" stroke="none" font-family="Arial" font-size="13px" font-style="normal" font-weight="bold" text-decoration="none" x="605" y="43.5">Selecting</text></g></g><g transform="translate(-182,-14) scale(1,1)"><path fill="#C0C0C0" stroke="none" d="M 417 199 L 557 199 Q 567 199 567 209 L 567 317 Q 567 327 557 327 L 417 327 Q 407 327 407 317 L 407 209 Q 407 199 417 199 Z" opacity="0.2"></path></g><g transform="translate(-182,-14) scale(1,1)"><path fill="#ffffd8" stroke="none" d="M 410 192 L 550 192 Q 560 192 560 202 L 560 310 Q 560 320 550 320 L 410 320 Q 400 320 400 310 L 400 202 Q 400 192 410 192 Z"></path></g><g transform="translate(-182,-14) scale(1,1)"><path fill="none" stroke="#000000" d="M 410 192 L 550 192 Q 560 192 560 202 L 560 310 Q 560 320 550 320 L 410 320 Q 400 320 400 310 L 400 202 Q 400 192 410 192 Z" stroke-miterlimit="10"></path></g><g transform="translate(-182,-14) scale(1,1)"><path fill="none" stroke="#000000" d="M 400 217 L 560 217" stroke-miterlimit="10"></path></g><g transform="translate(-182,-14) scale(1,1)"><g><path fill="none" stroke="none"></path><text fill="#000000" stroke="none" font-family="Arial" font-size="13px" font-style="normal" font-weight="bold" text-decoration="none" x="464.5" y="211.5">Open</text></g></g><g transform="translate(-182,-14) scale(1,1)"><g><path fill="none" stroke="none"></path><text fill="#000000" stroke="none" font-family="Arial" font-size="13px" font-style="normal" font-weight="normal" text-decoration="none" x="405" y="234.5">entry/door led to open</text></g></g><g transform="translate(-182,-14) scale(1,1)"><path fill="#C0C0C0" stroke="none" d="M 713 199 L 853 199 Q 863 199 863 209 L 863 317 Q 863 327 853 327 L 713 327 Q 703 327 703 317 L 703 209 Q 703 199 713 199 Z" opacity="0.2"></path></g><g transform="translate(-182,-14) scale(1,1)"><path fill="#ffffd8" stroke="none" d="M 706 192 L 846 192 Q 856 192 856 202 L 856 310 Q 856 320 846 320 L 706 320 Q 696 320 696 310 L 696 202 Q 696 192 706 192 Z"></path></g><g transform="translate(-182,-14) scale(1,1)"><path fill="none" stroke="#000000" d="M 706 192 L 846 192 Q 856 192 856 202 L 856 310 Q 856 320 846 320 L 706 320 Q 696 320 696 310 L 696 202 Q 696 192 706 192 Z" stroke-miterlimit="10"></path></g><g transform="translate(-182,-14) scale(1,1)"><path fill="none" stroke="#000000" d="M 696 217 L 856 217" stroke-miterlimit="10"></path></g><g transform="translate(-182,-14) scale(1,1)"><g><path fill="none" stroke="none"></path><text fill="#000000" stroke="none" font-family="Arial" font-size="13px" font-style="normal" font-weight="bold" text-decoration="none" x="757.5" y="211.5">Ready</text></g></g><g transform="translate(-182,-14) scale(1,1)"><g><path fill="none" stroke="none"></path><text fill="#000000" stroke="none" font-family="Arial" font-size="13px" font-style="normal" font-weight="normal" text-decoration="none" x="701" y="234.5">entry/enable start</text></g></g><g transform="translate(-182,-14) scale(1,1)"><g><path fill="none" stroke="none"></path><text fill="#000000" stroke="none" font-family="Arial" font-size="13px" font-style="normal" font-weight="normal" text-decoration="none" x="701" y="249.5">entry/disable start</text></g></g><g transform="translate(-182,-14) scale(1,1)"><g><path fill="none" stroke="none"></path><text fill="#000000" stroke="none" font-family="Arial" font-size="13px" font-style="normal" font-weight="normal" text-decoration="none" x="701" y="264.5">entry/door led to closed</text></g></g><g transform="translate(-182,-14) scale(1,1)"><path fill="none" stroke="#000000" d="M 561 256 L 695 256" stroke-miterlimit="10"></path></g><g transform="translate(-182,-14) scale(1,1)"><path fill="none" stroke="#000000" d="M 684.8373251423759 260.209517756016 L 695 256 L 684.8373251423758 251.790482243984" stroke-miterlimit="10"></path></g><g transform="translate(-182,-14) scale(1,1)"><g><path fill="none" stroke="none"></path><text fill="#000000" stroke="none" font-family="Arial" font-size="13px" font-style="normal" font-weight="normal" text-decoration="none" x="597.5" y="247.5">close door</text></g></g><g transform="translate(-182,-14) scale(1,1)"><path fill="#C0C0C0" stroke="none" d="M 329 447 L 949 447 Q 959 447 959 457 L 959 741 Q 959 751 949 751 L 329 751 Q 319 751 319 741 L 319 457 Q 319 447 329 447 Z" opacity="0.2"></path></g><g transform="translate(-182,-14) scale(1,1)"><path fill="#d8fff8" stroke="none" d="M 322 440 L 942 440 Q 952 440 952 450 L 952 734 Q 952 744 942 744 L 322 744 Q 312 744 312 734 L 312 450 Q 312 440 322 440 Z"></path></g><g transform="translate(-182,-14) scale(1,1)"><path fill="none" stroke="#000000" d="M 322 440 L 942 440 Q 952 440 952 450 L 952 734 Q 952 744 942 744 L 322 744 Q 312 744 312 734 L 312 450 Q 312 440 322 440 Z" stroke-miterlimit="10"></path></g><g transform="translate(-182,-14) scale(1,1)"><path fill="none" stroke="#000000" d="M 312 465 L 952 465" stroke-miterlimit="10"></path></g><g transform="translate(-182,-14) scale(1,1)"><path fill="none" stroke="#000000" d="M 312 503 L 952 503" stroke-miterlimit="10"></path></g><g transform="translate(-182,-14) scale(1,1)"><g><path fill="none" stroke="none"></path><text fill="#000000" stroke="none" font-family="Arial" font-size="13px" font-style="normal" font-weight="bold" text-decoration="none" x="604" y="459.5">Operating</text></g></g><g transform="translate(-182,-14) scale(1,1)"><g><path fill="none" stroke="none"></path><text fill="#000000" stroke="none" font-family="Arial" font-size="13px" font-style="normal" font-weight="normal" text-decoration="none" x="317" y="482.5">entry/disable program change</text></g></g><g transform="translate(-182,-14) scale(1,1)"><g><path fill="none" stroke="none"></path><text fill="#000000" stroke="none" font-family="Arial" font-size="13px" font-style="normal" font-weight="normal" text-decoration="none" x="317" y="497.5">exit/enable program change</text></g></g><g transform="translate(-182,-14) scale(1,1)"><path fill="none" stroke="#000000" d="M 352 640 L 264 640 L 264 248 L 400 248" stroke-miterlimit="10"></path></g><g transform="translate(-182,-14) scale(1,1)"><path fill="none" stroke="#000000" d="M 389.83732514237585 252.209517756016 L 400 248 L 389.83732514237585 243.790482243984" stroke-miterlimit="10"></path></g><g transform="translate(-182,-14) scale(1,1)"><g><path fill="none" stroke="none"></path><text fill="#000000" stroke="none" font-family="Arial" font-size="13px" font-style="normal" font-weight="normal" text-decoration="none" x="191.5" y="427.5">open door</text></g></g><g transform="translate(-182,-14) scale(1,1)"><path fill="#C0C0C0" stroke="none" d="M 697 563 L 869 563 Q 879 563 879 573 L 879 705 Q 879 715 869 715 L 697 715 Q 687 715 687 705 L 687 573 Q 687 563 697 563 Z" opacity="0.2"></path></g><g transform="translate(-182,-14) scale(1,1)"><path fill="#ffffd8" stroke="none" d="M 690 556 L 862 556 Q 872 556 872 566 L 872 698 Q 872 708 862 708 L 690 708 Q 680 708 680 698 L 680 566 Q 680 556 690 556 Z"></path></g><g transform="translate(-182,-14) scale(1,1)"><path fill="none" stroke="#000000" d="M 690 556 L 862 556 Q 872 556 872 566 L 872 698 Q 872 708 862 708 L 690 708 Q 680 708 680 698 L 680 566 Q 680 556 690 556 Z" stroke-miterlimit="10"></path></g><g transform="translate(-182,-14) scale(1,1)"><path fill="none" stroke="#000000" d="M 680 581 L 872 581" stroke-miterlimit="10"></path></g><g transform="translate(-182,-14) scale(1,1)"><g><path fill="none" stroke="none"></path><text fill="#000000" stroke="none" font-family="Arial" font-size="13px" font-style="normal" font-weight="bold" text-decoration="none" x="752.5" y="575.5">Running</text></g></g><g transform="translate(-182,-14) scale(1,1)"><g><path fill="none" stroke="none"></path><text fill="#000000" stroke="none" font-family="Arial" font-size="13px" font-style="normal" font-weight="normal" text-decoration="none" x="685" y="598.5">entry/disable door operation</text></g></g><g transform="translate(-182,-14) scale(1,1)"><g><path fill="none" stroke="none"></path><text fill="#000000" stroke="none" font-family="Arial" font-size="13px" font-style="normal" font-weight="normal" text-decoration="none" x="685" y="613.5">do/run selected program</text></g></g><g transform="translate(-182,-14) scale(1,1)"><g><path fill="none" stroke="none"></path><text fill="#000000" stroke="none" font-family="Arial" font-size="13px" font-style="normal" font-weight="normal" text-decoration="none" x="685" y="628.5">exit/enable door operation</text></g></g><g transform="translate(-182,-14) scale(1,1)"><path fill="#C0C0C0" stroke="none" d="M 369 563 L 541 563 Q 551 563 551 573 L 551 705 Q 551 715 541 715 L 369 715 Q 359 715 359 705 L 359 573 Q 359 563 369 563 Z" opacity="0.2"></path></g><g transform="translate(-182,-14) scale(1,1)"><path fill="#ffffd8" stroke="none" d="M 362 556 L 534 556 Q 544 556 544 566 L 544 698 Q 544 708 534 708 L 362 708 Q 352 708 352 698 L 352 566 Q 352 556 362 556 Z"></path></g><g transform="translate(-182,-14) scale(1,1)"><path fill="none" stroke="#000000" d="M 362 556 L 534 556 Q 544 556 544 566 L 544 698 Q 544 708 534 708 L 362 708 Q 352 708 352 698 L 352 566 Q 352 556 362 556 Z" stroke-miterlimit="10"></path></g><g transform="translate(-182,-14) scale(1,1)"><path fill="none" stroke="#000000" d="M 352 581 L 544 581" stroke-miterlimit="10"></path></g><g transform="translate(-182,-14) scale(1,1)"><g><path fill="none" stroke="none"></path><text fill="#000000" stroke="none" font-family="Arial" font-size="13px" font-style="normal" font-weight="bold" text-decoration="none" x="419.5" y="575.5">Unloading</text></g></g><g transform="translate(-182,-14) scale(1,1)"><g><path fill="none" stroke="none"></path><text fill="#000000" stroke="none" font-family="Arial" font-size="13px" font-style="normal" font-weight="normal" text-decoration="none" x="357" y="598.5">entry/blank timer display</text></g></g><g transform="translate(-182,-14) scale(1,1)"><g><path fill="none" stroke="none"></path><text fill="#000000" stroke="none" font-family="Arial" font-size="13px" font-style="normal" font-weight="normal" text-decoration="none" x="357" y="613.5">do/flash program display</text></g></g><g transform="translate(-182,-14) scale(1,1)"><path fill="none" stroke="#000000" d="M 679 632 L 545 632" stroke-miterlimit="10"></path></g><g transform="translate(-182,-14) scale(1,1)"><path fill="none" stroke="#000000" d="M 555.1626748576241 627.790482243984 L 545 632 L 555.1626748576241 636.209517756016" stroke-miterlimit="10"></path></g><g transform="translate(-182,-14) scale(1,1)"><g><path fill="none" stroke="none"></path><text fill="#000000" stroke="none" font-family="Arial" font-size="13px" font-style="normal" font-weight="normal" text-decoration="none" x="554.5" y="653.5">wash program exits</text></g></g><g transform="translate(-182,-14) scale(1,1)"><path fill="none" stroke="#000000" d="M 856 256 L 992 256 L 992 632 L 872 632" stroke-miterlimit="10"></path></g><g transform="translate(-182,-14) scale(1,1)"><path fill="none" stroke="#000000" d="M 882.1626748576241 627.790482243984 L 872 632 L 882.1626748576241 636.209517756016" stroke-miterlimit="10"></path></g><g transform="translate(-182,-14) scale(1,1)"><g><path fill="none" stroke="none"></path><text fill="#000000" stroke="none" font-family="Arial" font-size="13px" font-style="normal" font-weight="normal" text-decoration="none" x="1006.5" y="428.5">start button</text></g></g><g transform="translate(-182,-14) scale(1,1)"><path fill="none" stroke="#000000" d="M 776 320 L 776 360 L 480 360 L 480 320" stroke-miterlimit="10"></path></g><g transform="translate(-182,-14) scale(1,1)"><path fill="none" stroke="#000000" d="M 484.209517756016 330.16267485762415 L 480 320 L 475.790482243984 330.16267485762415" stroke-miterlimit="10"></path></g><g transform="translate(-182,-14) scale(1,1)"><g><path fill="none" stroke="none"></path><text fill="#000000" stroke="none" font-family="Arial" font-size="13px" font-style="normal" font-weight="normal" text-decoration="none" x="591.5" y="380.5">open door</text></g></g><g transform="translate(-182,-14) scale(1,1)"><path fill="#C0C0C0" stroke="none" d="M 634 152.5 L 645.5 143 L 656 152.5 L 645.5 161 L 634 152.5" opacity="0.2"></path></g><g transform="translate(-182,-14) scale(1,1)"><path fill="#ffffff" stroke="none" d="M 627 145 L 638 136 L 649 145 L 638 154 L 627 145"></path></g><g transform="translate(-182,-14) scale(1,1)"><path fill="none" stroke="#000000" d="M 627 145 L 638 136 L 649 145 L 638 154 L 627 145 L 627 145" stroke-miterlimit="10"></path></g><g transform="translate(-182,-14) scale(1,1)"><path fill="none" stroke="#000000" d="M 649 144 L 776 144 L 776 192" stroke-miterlimit="10"></path></g><g transform="translate(-182,-14) scale(1,1)"><path fill="none" stroke="#000000" d="M 771.790482243984 181.83732514237585 L 776 192 L 780.209517756016 181.83732514237585" stroke-miterlimit="10"></path></g><g transform="translate(-182,-14) scale(1,1)"><g><path fill="none" stroke="none"></path><text fill="#000000" stroke="none" font-family="Arial" font-size="13px" font-style="normal" font-weight="normal" text-decoration="none" x="672.5" y="139.5">door closed</text></g></g><g transform="translate(-182,-14) scale(1,1)"><path fill="none" stroke="#000000" d="M 627 144 L 496 144 L 496 192" stroke-miterlimit="10"></path></g><g transform="translate(-182,-14) scale(1,1)"><path fill="none" stroke="#000000" d="M 491.790482243984 181.83732514237585 L 496 192 L 500.209517756016 181.83732514237585" stroke-miterlimit="10"></path></g><g transform="translate(-182,-14) scale(1,1)"><g><path fill="none" stroke="none"></path><text fill="#000000" stroke="none" font-family="Arial" font-size="13px" font-style="normal" font-weight="normal" text-decoration="none" x="528.5" y="140.5">door open</text></g></g><g transform="translate(-182,-14) scale(1,1)"><path fill="#C0C0C0" stroke="none" d="M 636 80.5 C 636 75.2532944 640.2532944 71 645.5 71 C 650.7467056 71 655 75.2532944 655 80.5 C 655 85.7467056 650.7467056 90 645.5 90 C 640.2532944 90 636 85.7467056 636 80.5 Z" opacity="0.2"></path></g><g transform="translate(-182,-14) scale(1,1)"><path fill="#000000" stroke="none" d="M 629 73.5 C 629 68.2532944 633.2532944 64 638.5 64 C 643.7467056 64 648 68.2532944 648 73.5 C 648 78.7467056 643.7467056 83 638.5 83 C 633.2532944 83 629 78.7467056 629 73.5 Z"></path></g><g transform="translate(-182,-14) scale(1,1)"><path fill="none" stroke="#000000" d="M 638 84 L 638 135" stroke-miterlimit="10"></path></g><g transform="translate(-182,-14) scale(1,1)"><path fill="none" stroke="#000000" d="M 633.790482243984 124.83732514237585 L 638 135 L 642.209517756016 124.83732514237585" stroke-miterlimit="10"></path></g></g></svg>